<?xml version="1.0" encoding="UTF-8" standalone="no"?>
<!-- Created with Inkscape (http://www.inkscape.org/) -->

<svg
   xmlns:dc="http://purl.org/dc/elements/1.1/"
   xmlns:cc="http://creativecommons.org/ns#"
   xmlns:rdf="http://www.w3.org/1999/02/22-rdf-syntax-ns#"
   xmlns:svg="http://www.w3.org/2000/svg"
   xmlns="http://www.w3.org/2000/svg"
   xmlns:sodipodi="http://sodipodi.sourceforge.net/DTD/sodipodi-0.dtd"
   xmlns:inkscape="http://www.inkscape.org/namespaces/inkscape"
   width="744.09448819"
   height="1052.3622047"
   id="svg2"
   version="1.1"
   inkscape:version="0.48.4 r9939"
   sodipodi:docname="New document 1">
  <defs
     id="defs4">
    <inkscape:path-effect
       effect="spiro"
       id="path-effect3027"
       is_visible="true" />
  </defs>
  <sodipodi:namedview
     id="base"
     pagecolor="#ffffff"
     bordercolor="#666666"
     borderopacity="1.0"
     inkscape:pageopacity="0.0"
     inkscape:pageshadow="2"
     inkscape:zoom="2.8"
     inkscape:cx="331.04873"
     inkscape:cy="779.26339"
     inkscape:document-units="px"
     inkscape:current-layer="layer1"
     showgrid="false"
     inkscape:window-width="1920"
     inkscape:window-height="1146"
     inkscape:window-x="0"
     inkscape:window-y="0"
     inkscape:window-maximized="1" />
  <metadata
     id="metadata7">
    <rdf:RDF>
      <cc:Work
         rdf:about="">
        <dc:format>image/svg+xml</dc:format>
        <dc:type
           rdf:resource="http://purl.org/dc/dcmitype/StillImage" />
        <dc:title></dc:title>
      </cc:Work>
    </rdf:RDF>
  </metadata>
  <g
     inkscape:label="Layer 1"
     inkscape:groupmode="layer"
     id="layer1">
    <path
       sodipodi:type="arc"
       style="fill:#ececec;stroke:#000000;stroke-width:1px;stroke-linecap:butt;stroke-linejoin:miter;stroke-opacity:1"
       id="path2985"
       sodipodi:cx="76.771591"
       sodipodi:cy="259.39243"
       sodipodi:rx="63.63961"
       sodipodi:ry="63.63961"
       d="m 140.4112,259.39243 a 63.63961,63.63961 0 1 1 -127.279219,0 63.63961,63.63961 0 1 1 127.279219,0 z"
       transform="translate(132.23281,102.56022)" />
    <path
       transform="matrix(0.7133439,0,0,1.4347141,76.293848,-171.52964)"
       sodipodi:type="arc"
       style="fill:none;stroke:#000000"
       id="path3031-4"
       sodipodi:cx="201.39917"
       sodipodi:cy="367.85757"
       sodipodi:rx="6.1871843"
       sodipodi:ry="4.9244938"
       d="m 207.58635,367.85757 a 6.1871843,4.9244938 0 1 1 -12.37436,0 6.1871843,4.9244938 0 1 1 12.37436,0 z" />
    <path
       transform="matrix(0.71537755,0,0,1.3603461,56.943912,-144.04654)"
       sodipodi:type="arc"
       style="fill:none;stroke:#000000"
       id="path3031-4-8"
       sodipodi:cx="201.39917"
       sodipodi:cy="367.85757"
       sodipodi:rx="6.1871843"
       sodipodi:ry="4.9244938"
       d="m 207.58635,367.85757 a 6.1871843,4.9244938 0 1 1 -12.37436,0 6.1871843,4.9244938 0 1 1 12.37436,0 z" />
    <path
       transform="matrix(0.73821775,0,0,0.67109406,61.940364,123.89473)"
       sodipodi:type="arc"
       style="fill:#000000;stroke:#000000"
       id="path3031-4-8-3"
       sodipodi:cx="201.39917"
       sodipodi:cy="367.85757"
       sodipodi:rx="6.1871843"
       sodipodi:ry="4.9244938"
       d="m 207.58635,367.85757 a 6.1871843,4.9244938 0 1 1 -12.37436,0 6.1871843,4.9244938 0 1 1 12.37436,0 z" />
    <path
       style="fill:none;stroke:#000000;stroke-width:1px;stroke-linecap:butt;stroke-linejoin:miter;stroke-opacity:1"
       d="m 189.90867,376.61074 c 3.8098,10.33911 11.27478,11.0834 20.45559,7.32361 8.70789,2.69173 16.23997,2.91867 18.94036,-7.07107"
       id="path3087"
       inkscape:connector-curvature="0"
       sodipodi:nodetypes="ccc" />
    <path
       style="fill:none;stroke:#000000;stroke-width:1px;stroke-linecap:butt;stroke-linejoin:miter;stroke-opacity:1"
       d="m 202.78812,386.67166 0,8.83883 16.16244,-0.50507 0,-9.09138"
       id="path3089"
       inkscape:connector-curvature="0" />
    <path
       style="fill:none;stroke:#000000;stroke-width:1px;stroke-linecap:butt;stroke-linejoin:miter;stroke-opacity:1"
       d="m 211.62695,394.75288 -1.01015,-7.32361"
       id="path3091"
       inkscape:connector-curvature="0" />
    <path
       style="fill:none;stroke:#000000;stroke-width:1px;stroke-linecap:butt;stroke-linejoin:miter;stroke-opacity:1"
       d="m 193.94928,376.57013 -12.37436,-4.29315"
       id="path3093"
       inkscape:connector-curvature="0" />
    <path
       style="fill:none;stroke:#000000;stroke-width:1px;stroke-linecap:butt;stroke-linejoin:miter;stroke-opacity:1"
       d="m 191.92898,377.58028 -10.6066,-0.25253"
       id="path3095"
       inkscape:connector-curvature="0" />
    <path
       style="fill:none;stroke:#000000;stroke-width:1px;stroke-linecap:butt;stroke-linejoin:miter;stroke-opacity:1"
       d="m 193.69675,379.09551 -9.84899,3.78808"
       id="path3097"
       inkscape:connector-curvature="0" />
    <path
       style="fill:none;stroke:#000000;stroke-width:1px;stroke-linecap:butt;stroke-linejoin:miter;stroke-opacity:1"
       d="m 224.75894,377.07521 9.34391,-5.05076"
       id="path3099"
       inkscape:connector-curvature="0" />
    <path
       style="fill:none;stroke:#000000;stroke-width:1px;stroke-linecap:butt;stroke-linejoin:miter;stroke-opacity:1"
       d="m 225.51655,379.85313 9.34391,-0.50508"
       id="path3101"
       inkscape:connector-curvature="0" />
    <path
       style="fill:none;stroke:#000000;stroke-width:1px;stroke-linecap:butt;stroke-linejoin:miter;stroke-opacity:1"
       d="m 227.03178,378.08536 6.56599,-2.27284"
       id="path3103"
       inkscape:connector-curvature="0" />
    <path
       transform="matrix(0.38533574,0,0,0.71490897,124.67675,94.518817)"
       sodipodi:type="arc"
       style="fill:#000000;stroke:#000000"
       id="path3031-4-8-7"
       sodipodi:cx="201.39917"
       sodipodi:cy="367.85757"
       sodipodi:rx="6.1871843"
       sodipodi:ry="4.9244938"
       d="m 207.58635,367.85757 a 6.1871843,4.9244938 0 1 1 -12.37436,0 6.1871843,4.9244938 0 1 1 12.37436,0 z" />
    <path
       transform="matrix(0.38533574,0,0,0.71490897,141.09173,94.140017)"
       sodipodi:type="arc"
       style="fill:#000000;stroke:#000000"
       id="path3031-4-8-7-0"
       sodipodi:cx="201.39917"
       sodipodi:cy="367.85757"
       sodipodi:rx="6.1871843"
       sodipodi:ry="4.9244938"
       d="m 207.58635,367.85757 a 6.1871843,4.9244938 0 1 1 -12.37436,0 6.1871843,4.9244938 0 1 1 12.37436,0 z" />
    <path
       style="fill:none;stroke:#000000;stroke-width:1px;stroke-linecap:butt;stroke-linejoin:miter;stroke-opacity:1"
       d="m 195.96959,347.54855 c 9.34391,-0.75761 9.59645,-1.51523 10.85914,2.27284"
       id="path3155"
       inkscape:connector-curvature="0" />
    <path
       style="fill:none;stroke:#000000;stroke-width:1px;stroke-linecap:butt;stroke-linejoin:miter;stroke-opacity:1"
       d="m 226.40043,346.95366 c -9.34391,-0.75761 -9.59645,-1.51523 -10.85914,2.27284"
       id="path3155-8"
       inkscape:connector-curvature="0" />
    <path
       style="fill:none;stroke:#000000;stroke-width:1px;stroke-linecap:butt;stroke-linejoin:miter;stroke-opacity:1"
       d="m 155.31095,365.45845 c 12.51101,5.66719 27.95202,-5.25249 22.05181,9.56853 -2.05776,5.16896 -14.95573,6.92079 -15.23328,6.84645"
       id="path3197"
       inkscape:connector-curvature="0"
       sodipodi:nodetypes="csc" />
    <path
       style="fill:none;stroke:#000000;stroke-width:1px;stroke-linecap:butt;stroke-linejoin:miter;stroke-opacity:1"
       d="m 174.75639,370.76175 c -1.51523,0 -5.80838,0.25254 -5.80838,0.25254"
       id="path3210"
       inkscape:connector-curvature="0" />
    <path
       style="fill:none;stroke:#000000;stroke-width:1px;stroke-linecap:butt;stroke-linejoin:miter;stroke-opacity:1"
       d="m 174.25131,373.53967 -6.06092,2.52539"
       id="path3212"
       inkscape:connector-curvature="0" />
    <path
       style="fill:none;stroke:#000000;stroke-width:1px;stroke-linecap:butt;stroke-linejoin:miter;stroke-opacity:1"
       d="m 263.20216,366.84628 c -12.51101,5.66719 -27.95202,-5.25249 -22.05181,9.56853 2.05776,5.16896 14.95573,6.92079 15.23328,6.84645"
       id="path3197-3"
       inkscape:connector-curvature="0"
       sodipodi:nodetypes="csc" />
    <path
       style="fill:none;stroke:#000000;stroke-width:1px;stroke-linecap:butt;stroke-linejoin:miter;stroke-opacity:1"
       d="m 243.75672,372.14958 c 1.51523,0 5.80838,0.25254 5.80838,0.25254"
       id="path3210-5"
       inkscape:connector-curvature="0" />
    <path
       style="fill:none;stroke:#000000;stroke-width:1px;stroke-linecap:butt;stroke-linejoin:miter;stroke-opacity:1"
       d="m 244.2618,374.9275 6.06092,2.52539"
       id="path3212-2"
       inkscape:connector-curvature="0" />
    <path
       style="fill:#ffaaaa;stroke:#000000;stroke-width:1px;stroke-linecap:butt;stroke-linejoin:miter;stroke-opacity:1"
       d="m 191.59629,300.56504 c -2.94432,0.85454 -5.811,1.90457 -8.5625,3.15625 1.04527,8.38841 4.10048,20.65059 9.875,35.71875 l 8.09375,-7.21875 c -3.27579,-14.64398 -6.55055,-24.99208 -9.40625,-31.65625 z"
       id="path2985-0"
       inkscape:connector-curvature="0" />
    <path
       style="fill:none;stroke:#000000;stroke-width:1px;stroke-linecap:butt;stroke-linejoin:miter;stroke-opacity:1"
       d="m 187.63583,305.10184 7.57615,25.50635"
       id="path3273"
       inkscape:connector-curvature="0" />
    <path
       inkscape:connector-curvature="0"
       style="fill:#666666;stroke:#000000;stroke-width:1px;stroke-linecap:butt;stroke-linejoin:miter;stroke-opacity:1"
       d="m 210.54923,414.05103 c -9.89561,0 -18.68803,2.78346 -24.21875,7.09375 7.12843,2.76159 14.86515,4.3125 22.96875,4.3125 8.71722,0 17.02843,-1.7653 24.59375,-4.9375 -5.55858,-3.94282 -13.94872,-6.46875 -23.34375,-6.46875 z"
       id="path2985-1" />
    <path
       style="fill:#ffaaaa;stroke:#000000;stroke-width:1px;stroke-linecap:butt;stroke-linejoin:miter;stroke-opacity:1"
       d="m 224.4232,300.56408 c 2.94432,0.85454 5.811,1.90457 8.5625,3.15625 -1.04527,8.38841 -4.10048,20.65059 -9.875,35.71875 l -8.09375,-7.21875 c 3.27579,-14.64398 6.55055,-24.99208 9.40625,-31.65625 z"
       id="path2985-0-0"
       inkscape:connector-curvature="0" />
    <path
       style="fill:none;stroke:#000000;stroke-width:1px;stroke-linecap:butt;stroke-linejoin:miter;stroke-opacity:1"
       d="m 228.38366,305.10088 -7.57615,25.50635"
       id="path3273-4"
       inkscape:connector-curvature="0" />
  </g>
</svg>
