<?xml version="1.0" encoding="UTF-8" standalone="no"?>
<!-- Created with Inkscape (http://www.inkscape.org/) -->

<svg
   xmlns:dc="http://purl.org/dc/elements/1.1/"
   xmlns:cc="http://creativecommons.org/ns#"
   xmlns:rdf="http://www.w3.org/1999/02/22-rdf-syntax-ns#"
   xmlns:svg="http://www.w3.org/2000/svg"
   xmlns="http://www.w3.org/2000/svg"
   xmlns:sodipodi="http://sodipodi.sourceforge.net/DTD/sodipodi-0.dtd"
   xmlns:inkscape="http://www.inkscape.org/namespaces/inkscape"
   width="744.09448819"
   height="1052.3622047"
   id="svg3398"
   version="1.1"
   inkscape:version="0.48.4 r9939"
   sodipodi:docname="New document 19">
  <defs
     id="defs3400" />
  <sodipodi:namedview
     id="base"
     pagecolor="#ffffff"
     bordercolor="#666666"
     borderopacity="1.0"
     inkscape:pageopacity="0.0"
     inkscape:pageshadow="2"
     inkscape:zoom="1.4"
     inkscape:cx="316.02538"
     inkscape:cy="388.82171"
     inkscape:document-units="px"
     inkscape:current-layer="layer1"
     showgrid="false"
     inkscape:window-width="1548"
     inkscape:window-height="989"
     inkscape:window-x="0"
     inkscape:window-y="28"
     inkscape:window-maximized="0" />
  <metadata
     id="metadata3403">
    <rdf:RDF>
      <cc:Work
         rdf:about="">
        <dc:format>image/svg+xml</dc:format>
        <dc:type
           rdf:resource="http://purl.org/dc/dcmitype/StillImage" />
        <dc:title></dc:title>
      </cc:Work>
    </rdf:RDF>
  </metadata>
  <g
     inkscape:label="Layer 1"
     inkscape:groupmode="layer"
     id="layer1">
    <path
       style="fill:#00aa00;stroke:#000000;stroke-width:0.72994655px;stroke-linecap:butt;stroke-linejoin:miter;stroke-opacity:1"
       d="m 96.947057,505.64932 c 0,-1.83014 -17.082084,-52.70788 -17.082084,-52.70788 l 25.251787,29.28215 2.97079,-21.96161 12.6259,27.08599 4.45619,-17.56929 c 0,0 7.42699,20.49751 11.88319,18.30134 4.4562,-2.19616 13.36859,-20.86353 13.36859,-20.86353 l 4.4562,19.0334 12.62589,-20.86353 14.85398,21.96161 9.6551,-23.05969 0,24.88983 25.25177,-17.5693 -1.48539,19.39943 14.85398,-28.91612 c 0,0 9.6551,14.64107 10.39779,18.30134 0.74271,3.66027 19.31019,-9.15067 20.05289,-11.71286 0.7427,-2.56219 -1.48539,25.25585 -1.48539,25.25585 l 16.33938,-26.35393 2.2281,21.96161 17.82479,-11.34683 0.74269,13.54299 23.76638,-31.47831 -8.91239,38.0668 15.59669,-22.69367 1.4854,20.49751 c 0,0 43.07656,-45.02131 37.87767,-41.36104 -5.1989,3.66027 -21.53829,53.43992 -21.53829,53.43992"
       id="path3408"
       inkscape:connector-curvature="0" />
  </g>
</svg>
